<?xml version="1.0" encoding="utf-8"?>
<svg viewBox="0 0 500 500" xmlns="http://www.w3.org/2000/svg">
  <style>
@keyframes downer_leg_l_full_t { 0% { transform: translate(105.7px,499.3px) rotate(15deg) skewX(0deg) scale(1,1) translate(-105.6px,-499.4px); animation-timing-function: cubic-bezier(.4,0,.7,.7); } 6.25% { transform: translate(105.7px,499.3px) rotate(10deg) skewX(0deg) scale(1,1) translate(-105.6px,-499.4px); animation-timing-function: cubic-bezier(0,0,.6,1); } 12.5% { transform: translate(105.7px,499.3px) rotate(5deg) skewX(0deg) scale(1,1) translate(-105.6px,-499.4px); animation-timing-function: cubic-bezier(.4,0,.7,.7); } 18.75% { transform: translate(105.7px,499.3px) rotate(10deg) skewX(0deg) scale(1,1) translate(-105.6px,-499.4px); } 25% { transform: translate(105.7px,499.3px) rotate(15deg) skewX(0deg) scale(1,1) translate(-105.6px,-499.4px); animation-timing-function: cubic-bezier(.4,0,.7,.7); } 31.25% { transform: translate(105.7px,499.3px) rotate(10deg) skewX(0deg) scale(1,1) translate(-105.6px,-499.4px); animation-timing-function: cubic-bezier(0,0,.6,1); } 37.5% { transform: translate(105.7px,499.3px) rotate(5deg) skewX(0deg) scale(1,1) translate(-105.6px,-499.4px); animation-timing-function: cubic-bezier(.4,0,.7,.7); } 43.75% { transform: translate(105.7px,499.3px) rotate(10deg) skewX(0deg) scale(1,1) translate(-105.6px,-499.4px); } 50% { transform: translate(105.7px,499.3px) rotate(15deg) skewX(0deg) scale(1,1) translate(-105.6px,-499.4px); animation-timing-function: cubic-bezier(.4,0,.7,.7); } 56.25% { transform: translate(105.7px,499.3px) rotate(10deg) skewX(0deg) scale(1,1) translate(-105.6px,-499.4px); animation-timing-function: cubic-bezier(0,0,.6,1); } 62.5% { transform: translate(105.7px,499.3px) rotate(5deg) skewX(0deg) scale(1,1) translate(-105.6px,-499.4px); animation-timing-function: cubic-bezier(.4,0,.7,.7); } 68.75% { transform: translate(105.7px,499.3px) rotate(10deg) skewX(0deg) scale(1,1) translate(-105.6px,-499.4px); } 75% { transform: translate(105.7px,499.3px) rotate(15deg) skewX(0deg) scale(1,1) translate(-105.6px,-499.4px); animation-timing-function: cubic-bezier(.4,0,.7,.7); } 81.25% { transform: translate(105.7px,499.3px) rotate(10deg) skewX(0deg) scale(1,1) translate(-105.6px,-499.4px); animation-timing-function: cubic-bezier(0,0,.6,1); } 87.5% { transform: translate(105.7px,499.3px) rotate(5deg) skewX(0deg) scale(1,1) translate(-105.6px,-499.4px); animation-timing-function: cubic-bezier(.4,0,.7,.7); } 93.75% { transform: translate(105.7px,499.3px) rotate(10deg) skewX(0deg) scale(1,1) translate(-105.6px,-499.4px); animation-timing-function: cubic-bezier(0,0,.6,1); } 100% { transform: translate(105.7px,499.3px) rotate(15deg) skewX(0deg) scale(1,1) translate(-105.6px,-499.4px); } }
@keyframes hand_l_t { 0% { transform: translate(107.1px,484px) rotate(110.1deg) skewX(0deg) scale(1,1) translate(-98.7px,-483.2px); } 31.25% { transform: translate(107.1px,484px) rotate(110.1deg) skewX(0deg) scale(1,1) translate(-98.7px,-483.2px); } 33.75% { transform: translate(107.1px,484px) rotate(115.6deg) skewX(0deg) scale(1,1) translate(-98.7px,-483.2px); } 36.25% { transform: translate(107.1px,484px) rotate(110.1deg) skewX(0deg) scale(1,1) translate(-98.7px,-483.2px); } 38.75% { transform: translate(107.1px,484px) rotate(115.6deg) skewX(0deg) scale(1,1) translate(-98.7px,-483.2px); } 41.25% { transform: translate(107.1px,484px) rotate(110.1deg) skewX(0deg) scale(1,1) translate(-98.7px,-483.2px); } 100% { transform: translate(107.1px,484px) rotate(110.1deg) skewX(0deg) scale(1,1) translate(-98.7px,-483.2px); } }
</style>
  <g id="tablet" transform="translate(248.5,249.7) scale(1.597,1.56) translate(-250.8,-249.9)">
    <ellipse style="fill: rgb(166, 216, 234);" cx="251.739" cy="391.118" rx="141.143" ry="15.793" id="shadow"/>
    <rect id="upper_sidebutton" x="345.9" y="151.3" width="11.9" height="35.3" rx="2.4" ry="2.4" fill="#2e4a55"/>
    <rect id="loewer_sidebutton" x="345.9" y="190.7" width="11.9" height="13.3" rx="2.4" ry="2.4" fill="#2e4a55"/>
    <rect id="case" x="143.8" y="104.2" width="212" height="291.3" rx="16.6" ry="16.6" fill="#3b5e6b"/>
    <rect id="display" width="180.8" height="249.2" rx="4.9" ry="4.9" fill="#45879f" transform="translate(43.1,32.8) skewX(-0.1) translate(116.2,89.2)"/>
    <path id="display_accent" fill="#3f798e" d="M170.9 135.8h158.2v206.3h-158.2Z"/>
    <path id="sound" d="M275.3 114.4h-43.9" fill="#d8d8d8" stroke="#45879f" stroke-linecap="round" stroke-width="5px"/>
    <ellipse id="button" cx="250" cy="383.4" rx="6.4" ry="6.4" fill="#45879f"/>
    <ellipse id="camera" rx="6.4" ry="6.4" fill="#45879f" transform="translate(135.6,69.8) scale(.433,.39) translate(206.4,114.3)"/>
  </g>
  <g id="person" transform="translate(685.3,176.7) rotate(-1.2) skewX(.1) scale(-2.593,2.534) translate(80.9,-413.8)" style="filter: none;">
    <title>Person</title>
    <g id="leg_r_full" transform="translate(122.3,488.7) rotate(16.9) translate(-122.3,-488.7)">
      <path id="upper_leg_r" d="M98.9 495.8c4-0.5 8.3-0.1 12.5-0.4l9.9-7.7c-1.1-1.3-2.8-3.6-2.8-3.6c-7.8 0-18.2 1.6-24.4 3c-3.7 .8 3.9 8.8 4.8 8.7Z" fill="#2e5460"/>
      <g id="downer_leg_r_full" transform="translate(90.9,506.8) rotate(-1.4) scale(1,1) translate(-90.5,-506.6)">
        <g id="foot_r_full" transform="translate(92.8,508.4) rotate(-5.7) translate(-93.2,-509)">
          <path id="foot_r" d="M91.2 505.3l4.9 1.3c-1.2 4-2.3 7.6-2.8 11.1c-0.1 1 0 2 .5 3c.8 1.9-1 2.9-5.4 2.9c-1 0-1.2 1.6-3.6 2.4c-1.3 .4-2.4-0.1-3.2-0.5c-0.9-0.5-0.6-1.5 .2-2.1c.6-0.5 1-0.7 2-1.3c2.2-1.3 3.3-2.5 5-4.4c.4-0.5 .8-2.1 1-4.9c.1-1 .6-3.5 1.4-7.5Z" fill="#f4b78c">
            <title>Foot Left</title>
          </path>
          <path id="shoe_r" d="M89.4 516c.4-0.3 4.4-0.9 4.9-0.7c1 .4 .2 4.2 .6 5.3c.3 .7 1 2.9 .2 3.3c-0.9 .4-2.9 .6-4 .7c-0.4 .1-0.3-0.3-0.8-0.1c-0.2 .2 .1 .3-0.5 .5c-1 .2-3.2 .5-4.9 1c-1.4 .4-2.9 .3-3.7-0.1c-1-0.6-1.2-3.5-0.3-4c1.8-1 5-1.9 6.2-2.6c.6-0.3 1.8-2.9 2.3-3.3Z" fill="#484848">
            <title>Foot Left</title>
          </path>
        </g>
        <path id="downer_leg_r" d="M98.8 495.8c3.8-1.5 1.4-10-4.8-8.7c-3.7 .8-5.2 3.8-4.4 9.2c1.2 7.2 .5 12.9-0.8 20.2l6.3-0.3c2.2-8.2 2.3-16.4 3.2-18.8c.3-0.8-0.1-1.4 .5-1.6Z" fill="#2e5460"/>
      </g>
    </g>
    <g id="leg_l_full">
      <path id="upper_leg_l" d="M110.4 501.3c3.8-1.6 8.7-4.2 12.7-5.5c2.8-0.3 9.5-0.4 9.9-1.9c1.3-4.8 1.7-5.1-3.2-6.3c-1.4-1.1-3.7-2.8-3.7-2.8c-7.4 2-17 6.5-22.6 9.5c-3.4 1.8 6.1 7.4 6.9 7Z" fill="#396a79"/>
      <g id="downer_leg_l_full" transform="translate(105.7,499.3) rotate(15) scale(1,1) translate(-105.6,-499.4)" style="animation: 8s linear infinite both downer_leg_l_full_t;">
        <g id="foot_l_full">
          <path id="foot_l" d="M105.8 511.4l5-0.2c0 4.1 .1 7.9 .7 11.4c.1 1 .6 1.9 1.3 2.7c1.3 1.6-0.1 3-4.3 4.4c-0.9 .3-0.6 1.8-2.8 3.3c-1.1 .8-2.3 .7-3.1 .5c-1-0.2-1-1.2-0.4-2.1c.4-0.6 .7-0.9 1.5-1.8c1.6-1.9 2.4-3.4 3.5-5.7c.2-0.6 .1-2.2-0.5-4.9c-0.2-1-0.5-3.6-0.9-7.6Z" fill="#f4b78c">
            <title>Foot Left</title>
          </path>
          <path id="shoe_l" d="M106.5 522c.2-0.5 2.3-2.7 2.8-2.8c1.2-0.1 2.6 3.7 3.4 4.5c.6 .6 2.3 2.3 1.8 3c-0.7 .8-2.4 1.9-3.4 2.5c-0.3 .3-0.4-0.1-0.8 .4c-0.2 .2 .2 .2-0.3 .6c-0.8 .7-2.7 2-4.1 3.2c-1.1 1-2.5 1.7-3.5 1.7c-1.2-0.1-2.7-2.7-2.1-3.6c1.2-1.7 4.4-4 5.3-5.2c1-0.5 1.1-3.7 .9-4.3Z" fill="#484848">
            <title>Foot Left</title>
          </path>
        </g>
        <path id="downer_leg_l" d="M110.3 501.4c1.7-4.2-1.3-10-7-7c-3.3 1.7-4 5-1.7 10c3 6.6 3.9 12.2 4.7 19.6l6-2c-0.2-8.4-0.8-16.7-2-19c-0.5-0.8-0.2-1 0-1.6Z" fill="#396a79"/>
      </g>
    </g>
    <g id="pants" transform="translate(-312.9,294.6) rotate(-35) scale(1,1)">
      <title>Hose</title>
    </g>
    <g id="shirt" transform="translate(131.1,470.4) rotate(-15.9) translate(-258.5,-393.9)">
      <title>Tshirt</title>
      <g id="arm_l_with_shirt" transform="translate(254.8,379.9) rotate(16) translate(-33.6,-4.2)">
        <g id="arm_l_full" transform="translate(15.5,17.9) rotate(15.9) translate(-110,-476.1)">
          <path id="hand_l" d="M98.3 482.2c-0.5 1.9 .1 3.7 .7 4.3c.7 .7 2.3 2.4 3.6 1.8c.6-0.2-1.4-3-1.8-3.9c-0.9-2.1-1.1-1.3-2.5-2.2Z" fill="#f4b88c" transform="translate(107.1,484) rotate(110.1) translate(-98.7,-483.2)" style="animation: 8s linear infinite both hand_l_t;">
            <title>Arm Right</title>
          </path>
          <path id="arm_l" d="M121.9 481.5c.4-0.7 2.7-7.3 2-14.6c.1-0.4-2.4-1.8-3.7-1.3c-1.3 .5-0.8 13-1.3 13.3c-0.3 1.6-8.1 3-12 4.2c-1.9 1.2-0.2 2.5 1.6 1.8c2.2-0.8 11.7-0.9 13.4-3.4Z" fill="#f4b88c">
            <title>Arm Right</title>
          </path>
        </g>
        <path d="M29.1 20.9l-4.8-1.9c-0.1 .1 3.9-10.1 5.1-14.5c.7-1.1 2.3-3.3 4.8-4.5l.1 5.4c.2 .1-4.1 16.1-5.2 15.5Z" fill="#7b3643"/>
        <path d="M29.1 21.3c-2.1-0.7-2.9-1.1-5-2.5c-0.5-0.3-0.6 0 .2-0.8c.4-0.5 1.4-0.2 5.1 2.2c.3 .2 .6 .2-0.3 1.1Z" fill="#5f202c"/>
      </g>
      <path d="M256.1 413.1c2.5-3.6 5.1-3.9 8.8-13.2c1-2.7 2.1-8.2 3.5-10.7c-0.5-0.2-0.5 5.6-1.4 8.7l5.5 1.4c1.7-5.4 2-10.1 1.3-15.1c-1.3-2.9-2-4.1-4.8-5.8c-0.9-0.2-1.3-0.3-1.7-0.4c-0.2-0.1-0.6 0-0.9 0c-0.8 1.3-1 .9-2 1.1c-1.3 .2-0.8-0.3-2.1-0.3c-1 .1-1.3-0.6-1.4-2.3c-3.4-1.1-7.9-0.6-8.9 3.4c-1.2 4.9-5.3 18.8-8 22.6c-4.8 3.3-2.8 3 1.3 6.2c2.4 1.8 8 4.1 10.8 4.4Z" fill="#903f4e"/>
      <path id="arm_r" d="M253.3 401c7.3-1.2 13.2 1.7 13.3 1.3c.2-1.9 .8-3.4 .9-4.3c2.3 1.1 2.4 1.1 5 .7c.1-0.1-0.7 2.2-1.2 5c.1 4.6-8.1 .7-12.9-0.2c-3.9-1.3-3.3 4.3-7 3.1c-0.5-1.6-0.1-4.6 1.9-5.6Z" fill="#fdbb89">
        <title>Arm Left</title>
      </path>
      <path d="M266.8 397.2c2.7 .2 3.4 .4 6.5 1.5c.7 .2 .7-0.2 0 1.1c-0.4 .7-1.2 .6-6.6-1.1c-0.5-0.2-0.8-0.1 .1-1.5Z" fill="#7b2a39"/>
    </g>
    <g id="head_full" transform="translate(129.2,444) rotate(11.9) translate(-124.5,-444.1)">
      <path id="hals" d="M130.4 448.2l-6.2 1.6c.2 1 .4 1.9 .7 2.9c.4 1.1 .5 2.2 1.8 2.4c2.3 .5 3.3-0.4 4.7-2.8l-1-4.1Z" fill="#f3b07e">
        <title>Hals</title>
      </path>
      <g id="head_upper" transform="translate(-0.2,-1.4)">
        <path id="head" d="M132.7 446.9c.3 2.8-8.7 7.6-8.8 7.1c-2.2-0.4-2.6-2.1-3.6-5c-1.3-3.7-1.6-5.8-1.4-7.6c.4-2.3 .4-3.5 3.9-4.5c3.7-1 7-1.6 8.2 3.7c.3 1.6 1.4 4.3 1.7 6.3Z" fill="#fab783">
          <title>Head</title>
        </path>
        <path id="hair" d="M131 446.1l-2.1-5.1c-1.9 .2-3.2-0.1-5.1 .1c-1.7 .2-3.5 .2-5.1 .6c-1.2 .2-1.9-1.3-1.9-3.9c-0.1-1.4 .7-2.5 2.3-3.3c1.1-0.5 2.2-0.1 3.4 1.2c.8 .9 2.4 .8 4.9 0c2.5-0.9 4.2 1.3 5.1 6.6c.2 1.2-0.2 3-1.5 3.8Z" fill="#794520">
          <title>Hair</title>
        </path>
      </g>
    </g>
  </g>
  <g id="stackofbooks" transform="translate(138.8,397) scale(-3.172,2.893) translate(-146.4,-385.6)">
    <g id="book0" transform="translate(145.5,397.5) scale(-1,.799) translate(-116.6,-392)">
      <rect x="106.2" y="389" width="19.7" height="6" fill="#dfdfdf" style="paint-order: fill;"/>
      <path d="M127.3 388.9l-19.8 .1c-1.6-0.1-1.6 1.1-1.6 3c0 2.3 0 3.1 1.6 3.1h19.8" fill="none" stroke="#000" stroke-width="1.2px"/>
    </g>
    <g id="book1" transform="translate(148.7,391.7) scale(.875,.799) translate(-116.6,-392)">
      <rect x="106.2" y="389" width="19.7" height="6" fill="#dfdfdf" style="paint-order: fill;"/>
      <path d="M127.3 388.9l-19.8 .1c-1.6-0.1-1.6 1.1-1.6 3c0 2.3 0 3.1 1.6 3.1h19.8" fill="none" stroke="#3f2a2a" stroke-width="1.2px"/>
    </g>
    <g id="book2" transform="translate(149.4,387.3) scale(-0.802,.378) translate(-116.6,-392)">
      <rect x="106.2" y="389" width="19.7" height="6" fill="#dfdfdf" style="paint-order: fill;"/>
      <path d="M127.3 388.9l-19.8 .1c-1.6-0.1-1.6 1.1-1.6 3c0 2.3 0 3.1 1.6 3.1h19.8" fill="none" stroke="#2b404e" stroke-width="1.2px"/>
    </g>
    <g id="book3" transform="translate(151.9,384.6) scale(.765,.378) translate(-116.6,-392)">
      <rect x="106.2" y="389" width="19.7" height="6" fill="#dfdfdf" style="paint-order: fill;"/>
      <path d="M127.3 388.9l-19.8 .1c-1.6-0.1-1.6 1.1-1.6 3c0 2.3 0 3.1 1.6 3.1h19.8" fill="none" stroke="#7a683e" stroke-width="1.2px"/>
    </g>
    <g id="book4" transform="translate(152.1,381.2) scale(.594,.605) translate(-116.6,-392)">
      <rect x="106.2" y="389" width="19.7" height="6" fill="#dfdfdf" style="paint-order: fill;"/>
      <path d="M127.3 388.9l-19.8 .1c-1.6-0.1-1.6 1.1-1.6 3c0 2.3 0 3.1 1.6 3.1h19.8" fill="none" stroke="#7a5a3f" stroke-width="1.2px"/>
    </g>
    <g id="book5" transform="translate(150.9,377.5) scale(-0.472,.401) translate(-116.6,-392)">
      <rect x="106.2" y="389" width="19.7" height="6" fill="#dfdfdf" style="paint-order: fill;"/>
      <path d="M127.3 388.9l-19.8 .1c-1.6-0.1-1.6 1.1-1.6 3c0 2.3 0 3.1 1.6 3.1h19.8" fill="none" stroke="#443b63" stroke-width="1.2px"/>
    </g>
    <g id="book6" transform="translate(151.5,374.6) scale(.412,.401) translate(-116.6,-392)">
      <rect x="106.2" y="389" width="19.7" height="6" fill="#dfdfdf" style="paint-order: fill;"/>
      <path d="M127.3 388.9l-19.8 .1c-1.6-0.1-1.6 1.1-1.6 3c0 2.3 0 3.1 1.6 3.1h19.8" fill="none" stroke="#6f3333" stroke-width="1.2px"/>
    </g>
    <g id="book7" transform="translate(152.2,372.1) scale(.467,.3) translate(-116.6,-392)">
      <rect x="106.2" y="389" width="19.7" height="6" fill="#dfdfdf" style="paint-order: fill;"/>
      <path d="M127.3 388.9l-19.8 .1c-1.6-0.1-1.6 1.1-1.6 3c0 2.3 0 3.1 1.6 3.1h19.8" fill="none" stroke="#2e8981" stroke-width="1.2px"/>
    </g>
  </g>
</svg>