<svg xmlns="http://www.w3.org/2000/svg" viewBox="0 0 500 500"><style>
@keyframes hand_l_t { 0% { transform: translate(107.5px,484.2px) rotate(110.1deg) translate(-98.7px,-482.7px); } 7.353% { transform: translate(107.5px,484.2px) rotate(118.7deg) translate(-98.7px,-482.7px); } 14.706% { transform: translate(107.5px,484.2px) rotate(107deg) translate(-98.7px,-482.7px); } 26.471% { transform: translate(107.5px,484.2px) rotate(107deg) translate(-98.7px,-482.7px); } 33.824% { transform: translate(107.5px,484.2px) rotate(101.2deg) translate(-98.7px,-482.7px); } 39.706% { transform: translate(107.5px,484.2px) rotate(106.9deg) translate(-98.7px,-482.7px); } 45.588% { transform: translate(107.5px,484.2px) rotate(106.9deg) translate(-98.7px,-482.7px); } 57.353% { transform: translate(107.5px,484.2px) rotate(113.4deg) translate(-98.7px,-482.7px); } 58.824% { transform: translate(107.5px,484.2px) rotate(110.5deg) translate(-98.7px,-482.7px); } 66.176% { transform: translate(107.5px,484.2px) rotate(105.4deg) translate(-98.7px,-482.7px); } 80.882% { transform: translate(107.5px,484.2px) rotate(105.4deg) translate(-98.7px,-482.7px); } 86.765% { transform: translate(107.5px,484.2px) rotate(107deg) translate(-98.7px,-482.7px); } 91.176% { transform: translate(107.5px,484.2px) rotate(118.7deg) translate(-98.7px,-482.7px); } 97.059% { transform: translate(107.5px,484.2px) rotate(110.1deg) translate(-98.7px,-482.7px); } 100% { transform: translate(107.5px,484.2px) rotate(110.1deg) translate(-98.7px,-482.7px); } }
@keyframes a0_t { 0% { transform: translate(.7px,2.6px); } 22.059% { transform: translate(.7px,2.6px); } 36.765% { transform: translate(5.2px,-25.7px); } 52.941% { transform: translate(5.2px,-25.7px); } 67.647% { transform: translate(.7px,2.6px); } 100% { transform: translate(.7px,2.6px); } }
@keyframes a0_o { 0% { opacity: 1; } 22.059% { opacity: 1; } 36.765% { opacity: 0; } 52.941% { opacity: 0; } 67.647% { opacity: 1; } 100% { opacity: 1; } }
@keyframes a1_t { 0% { transform: translate(366.7px,233.7px) scale(1,1) translate(-366.7px,-233.7px); } 52.941% { transform: translate(366.7px,233.7px) scale(1,1) translate(-366.7px,-233.7px); } 67.647% { transform: translate(366.7px,233.7px) scale(0,0) translate(-366.7px,-233.7px); } 70.588% { transform: translate(366.7px,233.7px) scale(0,0) translate(-366.7px,-233.7px); } 85.294% { transform: translate(366.7px,233.7px) scale(1,1) translate(-366.7px,-233.7px); } 100% { transform: translate(366.7px,233.7px) scale(1,1) translate(-366.7px,-233.7px); } }
@keyframes a1_o { 0% { opacity: 1; } 52.941% { opacity: 1; } 67.647% { opacity: 0; } 70.588% { opacity: 0; } 85.294% { opacity: 1; } 100% { opacity: 1; } }
@keyframes a2_t { 0% { transform: translate(360.7px,263.7px) scale(1,1) translate(-360.7px,-263.7px); } 13.235% { transform: translate(360.7px,263.7px) scale(1,1) translate(-360.7px,-263.7px); } 27.941% { transform: translate(360.7px,263.7px) scale(2,2) translate(-360.7px,-263.7px); } 44.118% { transform: translate(360.7px,263.7px) scale(2,2) translate(-360.7px,-263.7px); } 58.824% { transform: translate(360.7px,263.7px) scale(1,1) translate(-360.7px,-263.7px); } 100% { transform: translate(360.7px,263.7px) scale(1,1) translate(-360.7px,-263.7px); } }
@keyframes a2_o { 0% { opacity: 1; } 13.235% { opacity: 1; } 27.941% { opacity: 0; } 44.118% { opacity: 0; } 58.824% { opacity: 1; } 100% { opacity: 1; } }
@keyframes a3_t { 0% { transform: translate(-2.4px,10.5px); } 14.706% { transform: translate(0px,0px); } 33.824% { transform: translate(0px,0px); } 48.529% { transform: translate(1.6px,-12.5px); } 100% { transform: translate(1.6px,-12.5px); } }
@keyframes a3_o { 0% { opacity: 0; } 14.706% { opacity: 1; } 33.824% { opacity: 1; } 48.529% { opacity: 0; } 100% { opacity: 0; } }
</style><path id="mouse" d="M180 361.3c6.9 .5 14 .8 21.2 .9c3.9 0 7-2.1 9.1-6.4c1-2.2-0.7-4.1-5.2-5.8c-7.9-2.9-16.4-2.8-25.4 .3c-3.3 1.1-4.6 4-3.9 8.7c.3 1.4 1.6 2.2 4.2 2.3Z" fill="#e08e9d"/><g id="keyboard"><path d="M262.3 315.3c-1 1.2-1.7 1.8-1.4 3.1c2.4 13.6 5.9 27 9 40.4c.7 3 3.1 6.4 6.5 6c19.9-2.4 34.1-4.9 42.5-7.4c2.2-0.6 2.3-1.2 2.5-2.8c0 0-39.5 6.3-42 6.3c-4.1 .2-6.4-1.4-7.1-4.7c-3.1-13.3-6.9-26.9-10-40.9Z" fill="#903f4e"/><path d="M266.5 314.3c10.4-0.5 20.4-0.6 30.7 .3c1.4 .2 2.7 1.8 3.3 2.7c7.9 11.3 14.7 23.6 20.7 36c.6 1.2 .2 1.8-1.4 2c-3.5 .6-37.9 5.7-40.4 5.7c-4.1 .2-6.3-1.4-7.1-4.7c-3.3-13.5-6.7-26.7-10.1-40.1c-0.4-1.3 1-1.6 4.3-1.9Z" fill="#ffd9e0"/><path d="M269.8 316.2c7.6 0 14.4 .1 21.9 .5c1 .1 1.9 1.2 2.3 2c5.8 9.7 13.7 27.4 14.3 28.5c.8 1.5 .4 4.5-2.2 5c-2.5 .5-24.1 4.2-25.9 4.2c-3 .1-4.2-0.5-4.7-3.4c-1.9-11.6-6.2-23.9-9-35.3c-0.2-1.1 .9-1.2 3.3-1.5Z" fill="#e08e9d"/></g><g id="monitor"><g id="back"><path d="M381.5 257.6l32.6 1.1l26.4-16.6l-0.1 4.7l-25.5 16.2l-34.3-1.5l.9-3.9Z" fill="#ffeff2"/><path d="M377.5 248.4l-3.9 21c5.2 .2 8.4-3.4 8.9-6.1c1.4-7.2 1.3-8.8-5-14.9Z" fill="#f8dadf"/><path d="M446.6 235.9c.8 5.3 .7 11-0.4 17c-0.1 .8-0.8 1.3-2.1 1.3c-1.8 0-3.5-0.8-4.9-2.5c-3.2-3.8-2.6-8.7 1.9-14.7c1.1-1.5 4.9-3.3 5.5-1.1Z" fill="#f8dadf"/></g><g id="display"><path d="M382.3 189.7c-0.1-3.4-0.8-6-4.5-5.7c.1-0.1 1.5 5.2 1.5 5.2c1.4 11.8-14.5 139-24.2 137.5c1.5 .7 5.4-0.8 6.1-2.6c14.1-38 22.9-89.5 21.1-134.4Z" fill="#903f4e"/><path d="M331.6 284.4c5.4-28.3 9.3-61.3 13.9-98.3c.3-2.2 1.2-3.4 2.6-3.4c9.9-0.2 19.7 .3 29.5 1.3c2.6 .2 3.8 2 3.7 5.2c-1.7 44.2-17.3 133-23.3 137c-1.4 1-5 .7-6.3-1.1c-7.9-10.8-14.3-22.3-19.9-34.7c-0.7-1.4-0.7-3.2-0.2-6Z" fill="#ffd9e0"/><path d="M334.8 276.9c4.7-25.1 8.1-54.3 12.2-87.1c.3-2 1-3 2.3-3c8.6-0.2 17.3 .2 25.8 1.1c2.3 .2 3.3 1.8 3.2 4.6c-1.4 39.1-15.1 117.4-20.3 121c-1.2 .8-4.4 .6-5.5-1c-7-9.6-12.6-19.3-17.5-30.3c-0.6-1.3-0.6-2.9-0.2-5.3Z" fill="#ffebef"/><path d="M335 287.6c3.5 12.2 12.4 23.4 17.6 29.3c1 1.1-3 1.9-4.1 .3c-6.9-9.6-9.3-14.7-14.3-25.7c-0.5-1.3 .1-6.3 .8-3.9Z" fill="#ffebef"/></g></g><g id="person" transform="translate(184.7,246.2) rotate(7) skewX(.1) scale(-5.03,4.385) translate(-116.4,-462.4)"><title>Person</title><g id="shirt" transform="translate(131.1,470.4) rotate(-15.9) translate(-258.5,-393.9)"><title>Tshirt</title><g id="arm_l_with_shirt" transform="translate(238.5,385.4) rotate(16) translate(-19.4,-14)"><g id="arm_l_full" transform="translate(15.5,17.9) rotate(15.9) translate(-110,-476.1)"><path id="hand_l" d="M97.7 480.7c-0.5 1.9 .7 5.2 1.3 5.8c.7 .7 2.3 2.4 3.6 1.8c.6-0.2-1-3.3-1.4-4.2c-0.9-2.1-2.1-2.5-3.5-3.4Z" fill="#f4b88c" transform="translate(107.5,484.2) rotate(110.1) translate(-98.7,-482.7)" style="animation: 6.8s linear infinite both hand_l_t;"><title>Arm Right</title></path><path id="arm_l" d="M123.5 481.5c.4-0.7 1.8-7.1 1.1-14.4c.1-0.4-3.1-2-4.4-1.5c-1.3 .5-0.8 13-1.3 13.3c-0.3 1.6-9 2.9-12.9 4.1c-1.9 1.2 0 3.1 1.8 2.4c2.2-0.8 14-1.4 15.7-3.9Z" fill="#f4b88c"><title>Arm Right</title></path></g><path d="M29.7 21.3l-5.4-2.3c-0.1 .1 3.9-10.1 5.1-14.5c.7-1.1 1-2.8 3.5-4l1.8 5.9c.2 .1-3.9 15.5-5 14.9Z" fill="#7b3643"/><path d="M30 21.9c-2.1-0.7-3.8-1.7-5.9-3.1c-0.5-0.3-0.6 0 .2-0.8c.4-0.5 2.3 .4 6 2.8c.3 .2 .6 .2-0.3 1.1Z" fill="#5f202c"/></g><path d="M258.1 414.2c2.5-3.6 2.9-5.3 6.6-14.6c1-2.7 1.9-7.1 2.5-10c.5-2.6 .5-3.9 .2-7.9c0-1.6-2.7-3.4-3.1-3.5c-0.2-0.1-0.6 0-0.9 0c-0.8 1.3-1 .9-2 1.1c-1.3 .2-0.8-0.3-2.1-0.3c-1 .1-1.3-0.6-1.4-2.3c-3.4-1.1-4.9-0.8-5.9 3.2c-1.2 4.8-2.2 15.2-4.5 20.9c1 2.7 1.6 2.8 1.8 5.6c.4 5.3 6 9.9 8.8 7.8Z" fill="#903f4e"/><path id="arm_r" d="M238 401.6c1.5 .4 4.1 2 4.1 2c0 0 9.7 2 9.8 1.7c.2-1.9 4.4-7.1 4.5-8c2.3 1.1 2.8 1 5.1 1.3c-1.4 3.5-4.1 7.6-5.7 9.1c-2.2 4.6-8.7 .3-13.2-0.6c-3.9-1.1-4.7-0.7-8.4-3.1c0-2.4 2.2-2.7 3.8-2.4Z" fill="#fdbb89"><title>Arm Left</title></path><path d="M260.4 400.6l-5.3-1.7c-0.1 .1 3.5-10.3 6.5-15.2c.6-1.1 1.2-2.1 1.9-2.7c1.3-1.2 3.8 .4 3.6 2.1c-0.1 1.1-0.1 2.4-0.4 3.8c-1.2 5.5-5.6 14-6.3 13.7Z" fill="#7b3643"/><path d="M255.1 397.6c2.6 .9 3.2 1.2 6 3c.7 .4 .7 0-0.2 1.1c-0.5 .6-1.2 .3-6.1-2.6c-0.5-0.3-0.8-0.3 .3-1.5Z" fill="#7b2a39"/></g><g id="head_full" transform="translate(126.7,445.7) rotate(11.9) translate(-124.5,-444.1)"><path id="hals" d="M130.4 448.2l-6.2 1.6c.2 1 .4 1.9 .7 2.9c.4 1.1 .5 2.2 1.8 2.4c2.3 .5 3.3-0.4 4.7-2.8l-1-4.1Z" fill="#f3b07e"><title>Hals</title></path><g id="head_upper" transform="translate(-0.2,-1.4)"><path id="head" d="M132.7 446.9c.3 2.8-8.7 7.6-8.8 7.1c-2.2-0.4-2.6-2.1-3.6-5c-1.3-3.7-1.6-5.8-1.4-7.6c.4-2.3 .4-3.5 3.9-4.5c3.7-1 7-1.6 8.2 3.7c.3 1.6 1.4 4.3 1.7 6.3Z" fill="#fab783"><title>Head</title></path><path id="hair" d="M131 446.1l-2.1-5.1c-1.9 .2-3.2-0.1-5.1 .1c-1.7 .2-3.5 .2-5.1 .6c-1.2 .2-1.9-1.3-1.9-3.9c-0.1-1.4 .7-2.5 2.3-3.3c1.1-0.5 2.2-0.1 3.4 1.2c.8 .9 2.4 .8 4.9 0c2.5-0.9 4.2 1.3 5.1 6.6c.2 1.2-0.2 3-1.5 3.8Z" fill="#794520"><title>Hair</title></path></g></g></g><g id="cup" transform="translate(227.3,376.2) scale(1.15,.676) translate(-193.1,-312.1)"><ellipse cx="191.7" cy="294.9" rx="10.6" ry="7.3" fill="#903f4e"/><ellipse cx="192" cy="300.1" rx="8.5" ry="5.9" fill="#45879f"/><path d="M181.2 296.2c2 2.4 3.9 7.4 10.6 7.5c6.9 .2 10.5-8.7 10.5-8.7l-4.7 36.8c-0.6 2.6-1.9 4.1-3.8 4.6c-2.8 .7-4.8-0.5-5.7-3.4c-2.7-8.1-5-23.2-6.9-36.8Z" fill="#e08e9d"/><path d="M200.8 307.4c.9 .2 1.8 .5 2.8 .8c1.2 .4 1.7 1.6 1.5 3.6c-0.5 4.5-2 10.5-3.5 13.1c-0.7 1.3-3.9 1.5-3.9 1.3l.3-1.9h1.8c.2-0.1 .4-0.4 .6-1c1.1-3.7 2-7.8 2.8-12.3c.2-1.1-0.6-1.7-2.7-1.9c-0.6 0-0.5-0.6 .3-1.7Z" fill="#e08e9d"/></g><g id="tabs"><path d="M360.6 216.2l-13.4-2c-1.1 12.2-1.1 27.6-4.4 39.7l9.3 8.2c1.3 0 9.3-45.9 8.5-45.9Z" fill="#45879f" transform="translate(352.4,240.7) translate(-351.7,-238.2)" style="animation: 6.8s linear infinite both a0_t, 6.8s linear infinite both a0_o;"/><path d="M373 216.2l-8-1.1c-0.9 8.5-2.5 24.1-4.9 32.4l6.6 4.8c1.2 .2 7.9-35.8 6.3-36.1Z" fill="#3ea4c9" transform="translate(366.7,233.7) translate(-366.7,-233.7)" style="animation: 6.8s linear infinite both a1_t, 6.8s linear infinite both a1_o;"/><path d="M365.9 255.7l-6.1-3.9c-1.3 6.2-2.4 9.6-4.6 17.7l6.1 6c1.1 0 6.1-19.8 4.6-19.8Z" fill="#6ebfdd" transform="translate(360.7,263.7) translate(-360.7,-263.7)" style="animation: 6.8s linear infinite both a2_t, 6.8s linear infinite both a2_o;"/><path d="M360.2 278.7l-19-19.9c-0.1 4.7-0.8 8.9-1.7 14l16.9 22.1c1.4 0 4.6-16.2 3.8-16.2Z" fill="#22637b" opacity="0" transform="translate(347.5,287.3) translate(-349.9,-276.8)" style="animation: 6.8s linear infinite both a3_t, 6.8s linear infinite both a3_o;"/></g></svg>