<svg id="tree" xmlns="http://www.w3.org/2000/svg" xmlns:xlink="http://www.w3.org/1999/xlink" viewBox="0 0 500 500" shape-rendering="geometricPrecision" text-rendering="geometricPrecision"><style><![CDATA[#tree-apple_tr {animation: tree-apple_tr__tr 8000ms linear infinite normal forwards}@keyframes tree-apple_tr__tr { 0% {transform: translate(260.661414px,273.580715px) rotate(10deg)} 25% {transform: translate(260.661414px,273.580715px) rotate(-10deg)} 50% {transform: translate(260.661414px,273.580715px) rotate(10deg)} 75% {transform: translate(260.661414px,273.580715px) rotate(-10deg)} 100% {transform: translate(260.661414px,273.580715px) rotate(10deg)} }#tree-g7_tr {animation: tree-g7_tr__tr 8000ms linear infinite normal forwards}@keyframes tree-g7_tr__tr { 0% {transform: translate(230.659255px,391.718713px) rotate(0deg)} 12.500000% {transform: translate(230.659255px,391.718713px) rotate(18.075528deg)} 41.250000% {transform: translate(230.659255px,391.718713px) rotate(18.075528deg);animation-timing-function: cubic-bezier(0.600000,-0.280000,0.735000,0.045000)} 56.250000% {transform: translate(230.659255px,391.718713px) rotate(-14.580796deg);animation-timing-function: cubic-bezier(0.600000,-0.280000,0.735000,0.045000)} 75% {transform: translate(230.659255px,391.718713px) rotate(0deg)} 100% {transform: translate(230.659255px,391.718713px) rotate(0deg)} }#tree-g9_tr {animation: tree-g9_tr__tr 8000ms linear infinite normal forwards}@keyframes tree-g9_tr__tr { 0% {transform: translate(258.994110px,379.321182px) rotate(0deg)} 12.500000% {transform: translate(258.994110px,379.321182px) rotate(-13.876614deg)} 25% {transform: translate(258.994110px,379.321182px) rotate(-13.876614deg);animation-timing-function: cubic-bezier(0.680000,-0.550000,0.265000,1.550000)} 62.500000% {transform: translate(258.994110px,379.321182px) rotate(11.619989deg);animation-timing-function: cubic-bezier(0.680000,-0.550000,0.265000,1.550000)} 75% {transform: translate(258.994110px,379.321182px) rotate(0deg)} 100% {transform: translate(258.994110px,379.321182px) rotate(0deg)} }]]></style><g id="tree-g1" transform="matrix(1.15811000000000 0 0 1.43021000000000 23.82730000000000 -203.50200000000001)"><path id="tree-path1" d="M279.973000,439.772000L320.815000,439.772000C311.944000,426.366000,307.979000,408.499000,308.921000,386.171000C309.327000,376.547000,318.603000,361.089000,320.587000,352.669000C321.031000,350.784000,313.435000,355.365000,313.958000,353.540000C314.852000,350.421000,315.863000,347.390000,316.988000,344.448000C317.737000,342.489000,320.536000,341.444000,325.385000,341.313000C326.939000,341.271000,329.438000,340.242000,332.881000,338.227000C334.956000,337.012000,343.188000,338.249000,349.798000,341.883000C359.545000,347.242000,364.463000,347.528000,367.552000,347.928000C375.162000,348.914000,377.362000,340.166000,379.577000,337.308000C379.577000,337.308000,374.780000,341.631000,359.378000,340.222000C351.486000,339.500000,350.052000,338.728000,340.442000,331.467000C335.588000,327.799000,328.646000,326.600000,319.615000,327.870000C319.615000,327.870000,331.809000,323.984000,343.043000,317.257000C352.734000,311.454000,356.316000,311.886000,371.679000,318.974000C371.679000,318.974000,361.729000,303.160000,352.773000,303.531000C352.872000,303.708000,357.443000,292.149000,360.710000,280.318000C360.741000,280.206000,358.932000,278.484000,349.145000,296.271000C344.692000,304.364000,334.284000,314.724000,316.228000,317.935000C316.228000,317.935000,315.604000,304.636000,316.519000,292.587000C316.662000,290.702000,317.063000,288.805000,317.720000,286.889000C318.208000,285.466000,331.524000,277.381000,332.295000,275.936000C332.849000,274.897000,319.303000,281.648000,320.002000,280.595000C324.036000,274.520000,331.971000,267.048000,340.790000,260.283000C347.646000,255.023000,349.099000,243.970000,348.812000,244.163000C348.505000,244.369000,346.439000,248.626000,343.374000,251.953000C341.096000,254.426000,337.630000,257.963000,332.735000,260.387000C329.974000,261.754000,319.790000,269.607000,314.258000,278.715000C311.094000,283.924000,310.595000,287.726000,310.986000,295.552000C310.986000,295.552000,307.788000,293.120000,302.031000,285.359000C300.762000,283.648000,298.429000,281.511000,297.317000,280.684000C289.271000,274.705000,288.517000,274.661000,285.548000,274.716000C284.647000,274.733000,292.207000,280.415000,293.869000,281.944000C294.965000,282.952000,298.093000,286.081000,302.438000,292.181000C305.951000,297.113000,308.573000,302.637000,308.490000,311.740000C308.480000,312.852000,305.071000,317.512000,298.263000,325.720000C298.263000,325.720000,298.207000,323.245000,298.095000,318.294000C298.018000,314.914000,294.682000,308.097000,288.086000,297.844000C280.869000,286.625000,277.525000,271.937000,278.056000,253.780000C278.073000,253.221000,275.201000,234.132000,275.878000,256.093000C275.932000,257.856000,276.330000,261.797000,275.155000,268.339000C272.929000,280.728000,279.215000,297.701000,285.521000,305.981000C288.378000,309.733000,287.453000,317.961000,286.100000,321.612000C286.100000,321.612000,284.360000,319.405000,280.881000,314.991000C279.204000,312.863000,274.437000,310.908000,266.581000,309.126000C266.581000,309.126000,266.310000,305.284000,265.769000,297.599000C265.007000,286.783000,261.131000,279.734000,254.141000,276.451000C250.887000,274.923000,247.408000,274.096000,243.704000,273.971000C243.704000,273.971000,254.500000,278.048000,257.061000,281.291000C258.553000,283.181000,261.583000,287.146000,262.655000,297.042000C264.136000,310.712000,253.886000,313.043000,245.314000,295.398000C243.583000,291.835000,244.060000,292.272000,239.947000,279.401000C236.915000,269.914000,235.477000,261.696000,233.432000,255.317000C232.577000,252.652000,229.800000,250.103000,224.572000,249.872000C224.572000,249.872000,229.264000,255.241000,232.612000,261.663000C235.476000,267.155000,234.131000,267.960000,235.734000,285.406000C235.946000,287.710000,238.749000,295.162000,244.142000,307.761000C244.142000,307.761000,242.695000,307.425000,238.176000,305.119000C233.544000,302.756000,224.542000,308.377000,211.169000,321.983000C201.809000,331.506000,194.415000,332.654000,180.643000,326.493000C180.643000,326.493000,190.777000,332.019000,204.009000,333.907000C208.946000,334.611000,212.866000,330.317000,220.711000,320.896000C226.542000,313.893000,232.448000,310.700000,238.427000,311.315000C239.874000,311.464000,241.008000,312.375000,241.829000,314.048000C242.919000,316.269000,250.598000,318.270000,264.866000,320.052000C266.321000,320.234000,270.276000,324.024000,276.731000,331.423000C276.731000,331.423000,276.242000,330.913000,272.350000,329.753000C269.843000,329.006000,270.937000,333.008000,275.630000,341.760000C285.795000,360.715000,289.573000,380.192000,286.962000,400.189000C285.069000,414.687000,282.740000,427.881000,279.973000,439.772000Z" paint-order="stroke fill markers" fill="rgb(59,94,107)" stroke="none" stroke-width="1"/><g id="tree-g2"><path id="tree-path2" d="M209.160000,330.523000C206.953000,332.216000,204.289000,332.326000,201.165000,330.853000C199.641000,330.135000,195.134000,331.016000,190.668000,329.989000C187.041000,329.156000,182.534000,326.942000,181.036000,327.401000C177.407000,328.514000,191.654000,333.469000,201.825000,336.185000C204.854000,336.994000,207.727000,335.745000,210.445000,332.437000C210.962000,331.806000,210.534000,331.168000,209.160000,330.523000Z" fill="rgb(0,0,0)" fill-opacity="0.1" stroke="none" stroke-width="1"/><path id="tree-path3" d="M278.172000,326.281000C278.686000,327.266000,278.997000,331.350000,278.048000,332.639000C277.186000,333.809000,274.184000,331.524000,273.464000,333.022000C272.420000,335.193000,276.184000,340.645000,273.690000,337.913000C272.646000,336.770000,267.993000,329.857000,267.686000,327.143000C267.686000,327.143000,272.303000,330.084000,271.157000,328.391000C270.647000,327.639000,269.065000,324.765000,266.707000,323.561000C264.762000,322.569000,263.416000,322.581000,261.995000,322.020000C258.134000,320.495000,254.167000,320.949000,249.713000,319.902000C242.347000,318.171000,239.751000,317.848000,239.615000,315.835000C239.355000,311.989000,228.895000,315.185000,228.895000,315.185000L222.865000,318.252000L226.479000,311.886000C227.780000,309.681000,230.641000,308.461000,235.063000,308.224000C238.670000,308.030000,241.961000,309.506000,244.936000,312.650000C247.357000,315.209000,253.787000,316.874000,264.228000,317.649000C272.136000,318.235000,274.056000,318.385000,278.172000,326.281000Z" fill="rgb(0,0,0)" fill-opacity="0.1" stroke="none" stroke-width="1"/><path id="tree-path4" d="M284.889000,439.781000L277.244000,439.672000C279.829000,430.592000,282.677000,420.178000,283.211000,408.224000C283.487000,402.039000,285.742000,391.751000,285.347000,381.583000C285.080000,374.732000,282.381000,368.248000,281.715000,361.927000C281.044000,355.563000,277.884000,348.419000,277.982000,345.348000C278.093000,341.843000,283.892000,352.296000,284.295000,352.876000C286.736000,356.388000,287.852000,365.460000,288.617000,366.920000C289.105000,367.852000,290.084000,374.384000,290.443000,380.718000C290.777000,386.604000,290.043000,393.380000,289.911000,396.300000C289.243000,411.021000,286.697000,424.984000,284.889000,439.781000Z" fill="rgb(0,0,0)" fill-opacity="0.1" stroke="none" stroke-width="1"/><path id="tree-path5" d="M234.846000,276.937000C237.555000,279.362000,271.559000,285.624000,266.795000,284.632000C263.537000,283.954000,247.650000,284.095000,241.712000,282.584000C233.293000,280.442000,223.305000,275.986000,222.143000,275.513000C216.639000,273.267000,210.227000,275.562000,210.227000,275.562000L203.590000,274.020000L205.755000,272.568000C207.326000,271.571000,211.994000,272.472000,216.648000,272.248000C220.443000,272.064000,231.517000,273.959000,234.846000,276.937000Z" transform="matrix(0.45652600000000 0.82353500000000 -0.96120200000000 0.45652600000000 395.55599999999998 -42.56740000000000)" fill="rgb(0,0,0)" fill-opacity="0.1" stroke="none" stroke-width="1"/><path id="tree-path6" d="M264.905000,287.204000C267.247000,289.365000,272.599000,294.029000,272.382000,296.015000C272.255000,297.170000,271.618000,299.643000,270.899000,299.386000C270.179000,299.128000,270.881000,297.328000,270.225000,295.963000C268.868000,293.135000,264.813000,289.274000,261.914000,287.870000C257.332000,285.653000,253.425000,283.808000,252.726000,283.512000C247.308000,281.217000,241.354000,283.221000,241.354000,283.221000L237.187000,284.462000L234.575000,284.628000L240.346000,281.936000C241.869000,280.918000,244.748000,280.623000,249.298000,280.394000C253.009000,280.206000,261.605000,284.160000,264.905000,287.204000Z" transform="matrix(0.71931500000000 0.64301500000000 -0.75050500000000 0.71931500000000 288.71699999999998 -81.62300000000000)" fill="rgb(0,0,0)" fill-opacity="0.1" stroke="none" stroke-width="1"/><path id="tree-path7" d="M0,0L0,0" fill="rgb(216,216,216)" stroke="rgb(0,0,0)" stroke-width="1"/><path id="tree-path8" d="M0,0L0,0" fill="rgb(216,216,216)" stroke="rgb(0,0,0)" stroke-width="1"/><path id="tree-path9" d="M0,0L0,0" fill="rgb(216,216,216)" stroke="rgb(0,0,0)" stroke-width="1"/><path id="tree-path10" d="M0,0L0,0" fill="rgb(216,216,216)" stroke="rgb(0,0,0)" stroke-width="1"/><path id="tree-path11" d="M0,0L0,0" fill="rgb(216,216,216)" stroke="rgb(0,0,0)" stroke-width="1"/><path id="tree-path12" d="" fill="rgb(216,216,216)" stroke="rgb(0,0,0)" stroke-width="1"/><path id="tree-path13" d="M317.271000,301.580000C317.876000,302.524000,318.062000,302.669000,317.163000,303.904000C316.346000,305.026000,313.944000,304.587000,312.629000,302.964000C312.044000,302.243000,307.321000,299.521000,304.776000,298.367000C302.677000,297.416000,301.616000,298.033000,300.094000,297.495000C295.958000,296.034000,291.852000,296.469000,287.131000,295.465000C279.325000,293.806000,271.201000,288,265.731000,285.804000C260.161000,283.566000,251.799000,273.240000,251.799000,273.240000L245.527000,266.731000L255.348000,272.733000C263.199000,277.208000,268.031000,282.450000,271.024000,284.271000C274.267000,286.244000,277.372000,287.197000,281.802000,288.314000C284.379000,288.964000,286.472000,290.056000,291.637000,290.531000C294.245000,290.770000,297.526000,291.706000,301.198000,291.955000C309.489000,292.517000,312.420000,294.011000,317.271000,301.580000Z" transform="matrix(0.61064200000000 0.73300600000000 -0.85554000000000 0.61064200000000 354.03199999999998 -95.24220000000000)" fill="rgb(0,0,0)" fill-opacity="0.1" stroke="none" stroke-width="1"/><path id="tree-path14" d="M309.220000,293.664000C311.562000,295.825000,316.915000,300.489000,316.697000,302.475000C316.570000,303.630000,317.018000,316.069000,316.299000,315.811000C315.579000,315.554000,313.771000,303.655000,313.116000,302.290000C311.759000,299.463000,308.120000,296.527000,305.221000,295.123000C300.639000,292.906000,295.928000,291.758000,295.200000,291.546000C290.744000,290.247000,287.059000,289.753000,287.059000,289.753000C283.483000,289.223000,278.559000,288.417000,278.058000,288.990000C272.554000,288.996000,269.423000,287.126000,269.398000,287.014000L280.279000,285.299000C281.802000,284.280000,289.064000,287.084000,293.614000,286.854000C297.325000,286.666000,305.921000,290.620000,309.220000,293.664000Z" transform="matrix(0.71931500000000 0.64301500000000 -0.75050500000000 0.71931500000000 307.74299999999999 -104.11100000000000)" fill="rgb(0,0,0)" fill-opacity="0.1" stroke="none" stroke-width="1"/><path id="tree-path15" d="" fill="rgb(216,216,216)" stroke="rgb(0,0,0)" stroke-width="1"/><path id="tree-path16" d="M338.481000,269.698000C339.298000,270.473000,342.724000,273.743000,344.049000,275.188000C344.805000,276.014000,354.334000,284.674000,353.865000,285.197000C353.064000,286.089000,341.325000,278.594000,340.933000,278.161000C339.158000,276.198000,336.014000,275.541000,334.016000,273.416000C330.760000,269.956000,326.597000,266.978000,325.865000,266.773000C321.388000,265.518000,317.624000,265.041000,317.624000,265.041000C313.978000,264.529000,308.963000,263.750000,308.385000,264.304000C302.686000,264.310000,299.640000,262.504000,299.625000,262.395000L311.070000,260.739000C312.753000,259.755000,320.023000,261.824000,323.262000,262.684000C324.769000,263.084000,328.440000,264.161000,330.557000,265.273000C333.598000,266.868000,336.656000,267.965000,338.481000,269.698000Z" transform="matrix(0.17847600000000 -0.91076100000000 1.06301000000000 0.17847600000000 -21.63270000000000 521.76800000000003)" fill="rgb(0,0,0)" fill-opacity="0.1" stroke="none" stroke-width="1"/><path id="tree-path17" d="M0,0L0,0" transform="matrix(-0.48933300000000 -0.80723200000000 0.94217400000000 -0.48933300000000 0 0)" fill="rgb(216,216,216)" stroke="rgb(0,0,0)" stroke-width="1"/><path id="tree-path18" d="M0,0L0,0" fill="rgb(216,216,216)" stroke="rgb(0,0,0)" stroke-width="1"/><path id="tree-path19" d="M0,0L0,0" fill="rgb(216,216,216)" stroke="rgb(0,0,0)" stroke-width="1"/><path id="tree-path20" d="" fill="rgb(216,216,216)" stroke="rgb(0,0,0)" stroke-width="1"/><path id="tree-path21" d="" fill="rgb(216,216,216)" stroke="rgb(0,0,0)" stroke-width="1"/><path id="tree-path22" d="M350.564000,296.277000C351.343000,297.078000,354.831000,301.211000,356.142000,302.659000C356.890000,303.486000,361.699000,314.121000,361.227000,314.645000C360.419000,315.538000,353.385000,306.392000,352.973000,305.976000C351.799000,304.791000,349.438000,302.414000,347.450000,300.292000C346.287000,299.052000,339.658000,294.632000,338.647000,294.188000C334.472000,292.356000,330.599000,291.630000,330.599000,291.630000C326.963000,291.117000,313.211000,285.286000,313.198000,285.177000C313.198000,285.177000,333.113000,288.763000,336.340000,289.625000C337.841000,290.026000,341.497000,291.104000,343.602000,292.218000C346.625000,293.816000,349.378000,295.056000,350.564000,296.277000Z" transform="matrix(-0.23321500000000 0.90009800000000 -1.05056000000000 -0.23321500000000 730.98400000000004 66.35360000000000)" fill="rgb(0,0,0)" fill-opacity="0.1" stroke="none" stroke-width="1"/></g></g><g id="tree-g3"><path id="tree-path-5" d="M339.131000,419.537000C351.902000,411.842000,349.744000,390.525000,343.560000,383.277000C335.174000,389.097000,326.859000,412.029000,339.131000,419.537000" transform="matrix(0.94569300000000 -0.32506000000000 0.32506000000000 0.94569300000000 -111.97900000000000 132.54800000000000)" fill="rgb(155,52,71)" stroke="none" stroke-width="1"/><path id="tree-leaf1" d="M289.703000,279.307000C303.031000,271.780000,301.581000,250.929000,295.516000,243.839000C286.736000,249.532000,277.422000,271.963000,289.703000,279.307000" transform="matrix(-0.84544800000000 0.53405700000000 -0.53405700000000 -0.84544800000000 678.35400000000004 326.83600000000001)" fill="rgb(69,135,159)" stroke="none" stroke-width="1"/><path id="tree-leaf2" d="M278.950000,188.158000C291.629000,181.170000,285.416000,161.814000,277.301000,155.231000C269.114000,160.517000,264.084000,181.340000,278.950000,188.158000" transform="matrix(-0.40691600000000 -0.91346600000000 0.91346600000000 -0.40691600000000 234.02099999999999 495.33100000000002)" fill="rgb(69,135,159)" stroke="none" stroke-width="1"/><path id="tree-leaf5" d="M423.001000,207.715000C436.731000,200.897000,432.400000,182.013000,424.776000,175.591000C415.827000,180.748000,408.481000,201.063000,423.001000,207.715000" transform="matrix(0.01988700000000 0.99980200000000 -0.99980200000000 0.01988700000000 606.54399999999998 -235.42300000000000)" fill="rgb(69,135,159)" stroke="none" stroke-width="1"/><path id="tree-leaf7" d="M462.163000,323.195000C475.955000,315.871000,474.727000,295.582000,468.582000,288.683000C459.488000,294.223000,449.635000,316.049000,462.163000,323.195000" transform="matrix(-0.70943300000000 0.70477300000000 -0.70477300000000 -0.70943300000000 1009.83000000000004 195.53899999999999)" fill="rgb(69,135,159)" stroke="none" stroke-width="1"/><path id="tree-leaf6" d="M463.672000,266.838000C477.654000,260.007000,474.100000,241.087000,466.751000,234.653000C457.610000,239.819000,449.450000,260.173000,463.672000,266.838000" transform="matrix(-0.11386400000000 0.99349600000000 -0.99349600000000 -0.11386400000000 766.60900000000004 -182.27600000000001)" fill="rgb(69,135,159)" stroke="none" stroke-width="1"/><path id="tree-leaf4" d="M360.273000,191.607000C372.060000,183.840000,367.523000,162.325000,360.580000,155.009000C352.927000,160.884000,347.269000,184.029000,360.273000,191.607000" transform="matrix(0.98596600000000 0.16694400000000 -0.16694400000000 0.98596600000000 33.98530000000000 -57.67290000000000)" fill="rgb(69,135,159)" stroke="none" stroke-width="1"/><path id="tree-leaf3" d="M305.601000,190.072000C318.039000,182.312000,315.273000,160.816000,308.928000,153.506000C300.783000,159.375000,293.211000,182.501000,305.601000,190.072000" transform="matrix(0.98223200000000 -0.18767200000000 0.18767200000000 0.98223200000000 -26.79070000000000 60.60850000000000)" fill="rgb(69,135,159)" stroke="none" stroke-width="1"/><path id="tree-path-1" d="M346.626000,426.386000C358.779000,418.596000,355.368000,397.018000,348.824000,389.681000C340.889000,395.572000,334.052000,418.785000,346.626000,426.386000" transform="matrix(0.99848700000000 -0.05499600000000 0.05499600000000 0.99848700000000 -21.91470000000000 19.71290000000000)" fill="rgb(123,42,57)" stroke="none" stroke-width="1"/><path id="tree-path-2" d="M394.881000,425.688000C406.670000,417.920000,402.143000,396.404000,395.204000,389.087000C387.548000,394.962000,381.881000,418.109000,394.881000,425.688000" transform="matrix(0.98630300000000 0.16494500000000 -0.16494500000000 0.98630300000000 72.60209999999999 -59.51470000000000)" fill="rgb(123,42,57)" stroke="none" stroke-width="1"/><path id="tree-path-3" d="M405.475000,427.696000C417.140000,420.230000,410.772000,399.546000,402.989000,392.513000C395.478000,398.160000,391.368000,420.411000,405.475000,427.696000" transform="matrix(0.80710200000000 0.59041200000000 -0.59041200000000 0.80710200000000 320.06099999999998 -159.41700000000000)" fill="rgb(144,63,78)" stroke="none" stroke-width="1"/><path id="tree-path-4" d="M334.756000,427.958000C348.625000,420.675000,347.380000,400.503000,341.198000,393.643000C332.054000,399.151000,322.153000,420.852000,334.756000,427.958000" transform="matrix(0.67862400000000 -0.73448600000000 0.73448600000000 0.67862400000000 -193.35700000000000 379.69600000000003)" fill="rgb(144,63,78)" stroke="none" stroke-width="1"/></g><g id="tree-apple_tr" transform="translate(260.661414,273.580715) rotate(10)"><g id="tree-apple" transform="scale(0.392991,0.384970) translate(-161.419507,-281.842000)"><path id="tree-path23" d="M147.226000,287.887000C144.089000,289.375000,141.913000,291.879000,140.702000,295.402000C138.974000,300.415000,140.211000,306.987000,144.417000,315.115000C147.330000,320.749000,151.160000,322.040000,155.903000,318.983000C160.682000,320.894000,163.990000,320.840000,166.277000,318.928000C169.883000,315.915000,172.336000,310.761000,173.636000,303.462000C174.634000,297.869000,173.387000,293.199000,169.893000,289.458000C168.186000,287.632000,164.901000,287.235000,159.351000,289.201000C157.542000,287.962000,154.099000,287.328000,151.814000,287.089000C150.274000,286.928000,148.745000,287.193000,147.226000,287.887000Z" fill="rgb(155,52,71)" stroke="none" stroke-width="0.500000"/><path id="tree-path24" d="M159.789000,290.097000C159.847000,288.928000,160.163000,287.461000,160.751000,286.185000C161.051000,285.533000,161.939000,284.692000,163.420000,283.655000C163.043000,282.660000,162.440000,282.058000,161.605000,281.842000C160.931000,282.546000,160.259000,283.673000,159.763000,284.453000C158.921000,285.775000,158.468000,287.723000,158.399000,290.292000L159.789000,290.097000Z" fill="rgb(107,41,41)" stroke="none" stroke-width="0.250000"/><path id="tree-path25" d="M167.046000,290.606000C169.697000,293.355000,172.530000,296.785000,170.395000,306.039000" fill="none" stroke="rgb(197,54,80)" stroke-width="2.570820"/><path id="tree-path26" d="M155.978000,319.348000C156.573000,319.825000,167.311000,320.498000,165.256000,319.190000C163.802000,318.265000,160.138000,315.903000,155.807000,316.345000C152.160000,316.717000,144.243000,313.012000,144.393000,306.045000C144.487000,301.665000,140.691000,295.997000,140.223000,296.671000C136.503000,302.036000,141.254000,316.136000,147.116000,321.031000C150.236000,323.637000,155.245000,318.760000,155.978000,319.348000Z" fill="rgb(0,0,0)" fill-opacity="0.1" stroke="none" stroke-width="1"/></g></g><g id="tree-g4" transform="matrix(0.99978100000000 0.02095300000000 -0.02095300000000 0.99978100000000 15.18570000000000 2.42132000000000)"><path id="tree-path27" d="M275.357000,417.254000C274.563000,414.993000,273.505000,411.077000,272.685000,409.015000C271.746000,406.653000,269.094000,399.567000,269.127000,399.517000C271.702000,400.096000,274.489000,399.476000,276.826000,398.435000L278.562000,415.872000C281.181000,413.653000,283.778000,414.347000,286.353000,417.028000L275.357000,417.254000Z" fill="rgb(253,187,137)" stroke="none" stroke-width="0.250000"/><path id="tree-path28" d="M190.467000,412.997000L190.280000,418.017000C186.163000,417.770000,182.421000,417.541000,178.827000,417.888000C177.833000,417.984000,176.905000,418.352000,176.042000,418.992000C174.399000,420.211000,173.039000,418.682000,171.962000,414.405000C171.733000,413.498000,169.623000,413.262000,168.299000,411.043000C167.616000,409.899000,168.494000,407.742000,168.732000,406.912000C169.010000,405.943000,170.677000,405.663000,170.830000,406.648000C170.961000,407.491000,170.986000,408.127000,171.879000,409.031000C173.619000,410.792000,175.599000,412.280000,177.818000,413.494000C178.395000,413.810000,180.063000,413.773000,182.820000,413.383000C183.815000,413.242000,186.364000,413.114000,190.467000,412.997000Z" fill="rgb(244,183,140)" stroke="none" stroke-width="1"/><g id="tree-g5"><path id="tree-path29" d="M222.463000,399.872000C225.636000,402.605000,228.820000,405.348000,232.015000,408.102000L241.471000,406.348000C241.365000,404.603000,241.634000,400.648000,241.627000,400.651000C235.356000,396.164000,229.316000,392.617000,223.505000,390.009000C220.038000,388.452000,217.097000,390.124000,214.682000,395.023000C211.473000,401.535000,207.088000,407.321000,201.528000,412.381000L210.210000,412.424000C217.145000,407.305000,220.800000,403.456000,221.176000,400.877000C221.355000,399.646000,221.784000,399.311000,222.463000,399.872000Z" fill="rgb(46,84,96)" stroke="none" stroke-width="0.250000"/><path id="tree-path30" d="M252.344000,416.816000C242.257000,418.519000,233.944000,417.266000,224.379000,416.006000C221.400000,415.614000,218.792000,415.818000,215.944000,417.529000C213.539000,418.974000,204.771000,419.314000,189.633000,418.537000L189.610000,412.154000C200.681000,412.138000,208.229000,410.319000,215.058000,409.158000C220.280000,408.270000,225.010000,408.015000,231.005000,407.529000C234.519000,407.244000,241.450000,405.499000,241.450000,405.499000C241.319000,409.401000,244.868000,413.163000,252.344000,416.816000Z" fill="rgb(57,106,121)" stroke="none" stroke-width="0.250000"/></g><g id="tree-g6"><path id="tree-path31" d="M252.312000,416.815000C255.709000,414.321000,259.847000,408.598000,263.534000,399.266000C264.581000,396.616000,265.787000,394.034000,267.152000,391.521000L268.745000,397.868000L277.304000,397.217000L274.620000,382.562000C273.567000,379.371000,271.518000,377.813000,268.473000,377.887000C266.438000,377.936000,264.403000,378.002000,262.369000,378.083000C262.310000,379.380000,261.558000,380.491000,260.115000,380.697000C258.855000,380.877000,259.092000,380.643000,257.819000,380.715000C256.811000,380.772000,256.214000,379.958000,256.029000,378.273000C253.733000,377.738000,249.768000,377.738000,247.141000,378.273000C243.424000,379.029000,235.678000,382.882000,229.447000,386.616000C232.714000,387.425000,235.358000,388.180000,235.428000,390.707000C237.911000,390.820000,242.066000,388.806000,244.147000,388.669000L241.141000,401.579000C241.004000,407.736000,241.573000,409.816000,244.956000,412.308000C247.391000,414.102000,249.804000,415.945000,252.312000,416.815000Z" fill="rgb(144,63,78)" stroke="none" stroke-width="0.250000"/><path id="tree-path32" d="M268.490000,397.569000C271.102000,396.869000,274.044000,396.533000,277.315000,396.562000C278.032000,396.568000,278.070000,397.238000,277.791000,398.659000C277.636000,399.448000,274.587000,400.043000,268.907000,400.025000C268.434000,400.024000,268.047000,399.109000,268.490000,397.569000Z" fill="rgb(123,42,57)" stroke="none" stroke-width="1"/><path id="tree-path33" d="M227.334000,388.247000C228.590000,387.003000,231.440000,385.470000,235.319000,387.803000C235.930000,388.171000,236.201000,387.998000,236.474000,388.964000C238.478000,396.047000,226.581000,391.275000,225.045000,390.978000C224.581000,390.888000,226.054000,388.849000,227.334000,388.247000Z" transform="matrix(0.90511800000000 0.42516000000000 -0.42516000000000 0.90511800000000 187.46199999999999 -61.19320000000000)" fill="rgb(123,42,57)" stroke="none" stroke-width="1"/></g><g id="tree-g7_tr" transform="translate(230.659255,391.718713) rotate(0)"><g id="tree-g7" transform="translate(-230.659255,-391.718713)"><g id="tree-g8"><path id="tree-path34" d="M227.892000,379.310000C222.336000,378.202000,222.763000,378.070000,218.798000,377.303000L207.847000,366.334000C211.965000,366.348000,216.421000,368.389000,220.517000,368.376000L227.892000,379.310000Z" transform="matrix(0.84005300000000 0.54250400000000 -0.54250400000000 0.84005300000000 237.10499999999999 -58.56340000000000)" paint-order="stroke fill markers" fill="rgb(192,192,192)" stroke="none" stroke-width="1"/><path id="tree-path35" d="M223.876000,370.896000C220.585000,372.099000,218.607000,370.018000,216.223000,370.853000L223.344000,382.765000C227.034000,382.751000,228.294000,380.782000,232.005000,380.797000L223.876000,370.896000Z" transform="matrix(-0.80208900000000 -0.59720400000000 0.59720400000000 -0.80208900000000 178.90199999999999 812.70200000000000)" paint-order="stroke fill markers" fill="rgb(216,216,216)" stroke="none" stroke-width="1"/></g><path id="tree-path36" d="M226.326000,379.781000C221.804000,376.781000,222.847000,376.862000,217.246000,376.827000C216.387000,376.822000,214.756000,379.295000,219.239000,381.513000C221.589000,382.676000,224.330000,384.426000,226.801000,386.162000C227.988000,386.996000,226.380000,393.433000,228.969000,393.429000C230.315000,393.427000,231.658000,393.331000,232.997000,393.140000C235.117000,392.838000,232.775000,388.664000,226.326000,379.781000Z" transform="matrix(-0.99923300000000 -0.03916200000000 0.03916200000000 -0.99923300000000 434.73899999999998 778.77200000000005)" fill="rgb(244,184,140)" stroke="none" stroke-width="1"/></g></g><path id="tree-path37" d="M262.389000,375.997000L256.040000,376.150000C255.993000,377.127000,255.993000,378.102000,256.039000,379.076000C256.097000,380.313000,256.027000,381.345000,257.198000,381.907000C259.300000,382.916000,260.497000,382.280000,262.436000,380.306000L262.389000,375.997000Z" fill="rgb(243,176,126)" stroke="none" stroke-width="0.250000"/><g id="tree-g9_tr" transform="translate(258.994110,379.321182) rotate(0)"><g id="tree-g9" transform="translate(-258.994110,-379.321182)"><path id="tree-path38" d="M265.205000,374.906000C264.760000,377.674000,254.773000,379.840000,254.773000,379.321000C252.765000,378.395000,252.856000,376.586000,252.712000,373.519000C252.530000,369.642000,252.779000,367.522000,253.504000,365.870000C254.420000,363.788000,254.768000,362.626000,258.427000,362.631000C262.246000,362.636000,265.573000,362.983000,265.283000,368.403000C265.196000,370.026000,265.520000,372.959000,265.205000,374.906000Z" fill="rgb(250,183,131)" stroke="none" stroke-width="0.250000"/><path id="tree-path39" d="M263.781000,373.690000L263.149000,368.212000C261.343000,367.879000,260.072000,367.285000,258.241000,366.953000C256.582000,366.652000,254.866000,366.147000,253.178000,366.064000C251.940000,366.003000,251.725000,364.357000,252.395000,361.791000C252.746000,360.439000,253.792000,359.613000,255.529000,359.315000C256.685000,359.117000,257.668000,359.809000,258.473000,361.397000C258.994000,362.423000,260.584000,362.850000,263.247000,362.680000C265.828000,362.515000,266.834000,365.107000,266.264000,370.459000C266.133000,371.684000,265.306000,373.256000,263.781000,373.690000Z" fill="rgb(121,69,32)" stroke="none" stroke-width="1"/></g></g></g><line id="tree-line1" x1="455.130000" y1="425.531000" x2="66.758000" y2="425.531000" fill="rgb(0,0,0)" stroke="rgb(0,0,0)" stroke-width="1"/></svg>