<?xml version="1.0" encoding="UTF-8" standalone="no"?>
<!-- Created with Keyshape -->
<svg xmlns="http://www.w3.org/2000/svg" id="svg2" viewBox="0 0 73 54" width="73" height="54" style="white-space: preserve-spaces;">
    <defs id="defs6"/>
    <path id="t_upper" d="M674.004,703.535L633.895,286.934C626.516,187.234,663.895,136.016,687.156,109.023C729.641,59.7344,807.766,20.9844,897.988,4.82422C900.488,31.3164,978.203,837.723,978.203,837.871C980.898,879.266,968.848,915.469,941.23,947.012C909.023,983.797,861.367,994.824,841.68,994.824L133.391,994.746C80.1055,994.746,0,940.672,0,851.492C0,741.301,97.918,703.523,131.609,703.523C148.809,703.523,674.004,703.535,674.004,703.535" fill="#c50e1f" fill-opacity="1" fill-rule="nonzero" stroke="none" transform="translate(26.5584,26.8695) rotate(180) scale(-0.05428,0.05428) translate(-489.286,-499.824)"/>
    <path id="t_bottom" d="M261.555,83.7305L525.313,83.7383L579.285,644.258L315.52,644.246C315.52,644.246,268.379,156.316,261.555,83.7305L261.555,83.7305" fill="#c50e1f" fill-opacity="1" fill-rule="nonzero" stroke="none" transform="translate(22.8204,34.2424) rotate(180) scale(-0.05428,0.05428) translate(-420.42,-363.994)"/>
    <g id="u" transform="translate(62.2105,29.2881) translate(-10.4123,-24.7119)">
        <path d="M954.277,0C1034.18,0,1091.6,23.7188,1136.19,53.5938C1177.77,81.4531,1210,114.426,1234.73,156.953C1266.68,211.926,1276.52,263.016,1279.22,292.656C1279.24,292.898,1337.93,910.516,1337.93,910.516L1041.7,910.535C1041.7,910.535,954.18,0,954.277,0" fill="#c50e1f" fill-opacity="1" fill-rule="nonzero" stroke="none" transform="translate(10.4123,24.7119) rotate(180) scale(-0.05428,0.05428) translate(-1146.1,-455.267)"/>
        <g id="schrift" transform="translate(11.9654,16.403) translate(-5.33002,-13.192)">
            <path id="path20" d="M1145.06,412.961C1143.46,396.406,1161.66,387.5,1178.89,387.48L1210.43,387.449C1212.3,392.004,1213.42,397.168,1214.04,403.586C1215.72,421.172,1206.23,433.176,1178.77,433.203C1158.28,433.215,1146.39,426.805,1145.06,412.961ZM1231.29,401.926C1229.9,387.441,1227.42,376.473,1223.46,365.305L1076.52,365.43L1078.67,387.566L1125.61,387.527C1131.54,387.52,1139.69,386.895,1144.88,385.645L1144.92,386.063C1132.73,391.445,1125.92,403.66,1127.38,418.77C1129.73,443.176,1148.24,456.602,1178.96,456.582C1214.22,456.555,1234.59,436.055,1231.29,401.926" fill="#ffffff" fill-opacity="1" fill-rule="nonzero" stroke="none" transform="translate(4.2099,23.9068) rotate(180) scale(-0.05428,0.05428) translate(-1154.08,-410.944)"/>
            <path id="path22" d="M1153.55,520.371C1152.36,507.969,1160.74,499.266,1174.71,497.383L1178.91,541.035C1164.59,541.465,1154.8,533.406,1153.55,520.371ZM1196.11,562.336L1189.82,496.965C1212.93,496.316,1224.12,506.238,1226.15,527.344C1227.11,537.266,1226.05,547.617,1223.07,556.934L1240.35,559.805C1243.42,549.055,1244.63,536.219,1243.4,523.398C1240.35,491.746,1222.27,474.18,1186.41,474.211C1155.86,474.238,1134.41,491.836,1137.27,521.621C1140.1,550.996,1160.53,563.191,1183.69,563.176C1186.97,563.176,1191.88,562.949,1196.11,562.336" fill="#ffffff" fill-opacity="1" fill-rule="nonzero" stroke="none" transform="translate(6.18383,18.0582) rotate(180) scale(-0.05428,0.05428) translate(-1190.44,-518.693)"/>
            <path id="path24" d="M1170.43,640.41C1164.57,619.941,1177.75,610,1208.28,609.969L1249.69,609.941L1247.54,587.805L1145.7,587.891L1147.73,608.992C1153.46,608.984,1162.42,608.359,1170.08,606.902L1170.12,607.313C1156.82,611.887,1145.12,622.234,1149.02,641.473L1170.43,640.41" fill="#ffffff" fill-opacity="1" fill-rule="nonzero" stroke="none" transform="translate(6.57738,12.8502) rotate(180) scale(-0.05428,0.05428) translate(-1197.7,-614.639)"/>
            <path id="path26" d="M1254.53,660.391L1104.94,660.516L1107.07,682.645L1256.66,682.52L1254.53,660.391" fill="#ffffff" fill-opacity="1" fill-rule="nonzero" stroke="none" transform="translate(5.66032,9.76286) rotate(180) scale(-0.05428,0.05428) translate(-1180.8,-671.518)"/>
            <path id="path28" d="M1259.57,712.793L1157.73,712.883L1159.86,735.012L1261.72,734.922L1259.57,712.793ZM1140.76,724.063C1140.02,716.191,1133.46,709.797,1125.66,709.805C1118.09,709.805,1112.56,716.219,1113.3,724.094C1114.04,731.746,1120.82,738.145,1128.4,738.145C1135.98,738.137,1141.5,731.719,1140.76,724.063" fill="#ffffff" fill-opacity="1" fill-rule="nonzero" stroke="none" transform="translate(6.02274,6.91549) rotate(180) scale(-0.05428,0.05428) translate(-1187.48,-723.975)"/>
            <path id="path30" d="M1270.8,829.395L1205.43,829.453C1192.73,829.465,1184.8,825.945,1183.67,814.16C1182.19,798.633,1197.27,787.258,1217.77,787.234L1266.74,787.195L1264.61,765.059L1162.77,765.145L1164.8,786.25C1170.33,786.238,1179.1,785.82,1184.73,784.785L1184.75,784.988C1172.21,790.996,1164.39,803.418,1166.07,820.801C1168.32,844.172,1183.77,851.395,1201.6,851.379L1272.91,851.316L1270.8,829.395" fill="#ffffff" fill-opacity="1" fill-rule="nonzero" stroke="none" transform="translate(7.67085,2.34273) rotate(180) scale(-0.05428,0.05428) translate(-1217.84,-808.219)"/>
        </g>
    </g>
</svg>
